<svg width="24" height="24" viewBox="0 0 24 24" fill="none" xmlns="http://www.w3.org/2000/svg">
<path d="M19.5266 3.33333H18V4.66667H19.3333V21.3333H4.66665V4.66667H5.99998V3.33333H4.66665C4.50338 3.30972 4.33697 3.321 4.17838 3.36642C4.0198 3.41185 3.87265 3.49039 3.74664 3.59686C3.62064 3.70333 3.51865 3.83532 3.4474 3.9841C3.37616 4.13288 3.33727 4.29509 3.33331 4.46V21.54C3.33419 21.6888 3.36437 21.836 3.42213 21.9732C3.47989 22.1104 3.56411 22.2348 3.66997 22.3394C3.77583 22.4441 3.90126 22.5268 4.03909 22.583C4.17693 22.6391 4.32448 22.6675 4.47331 22.6667H19.5266C19.6755 22.6675 19.823 22.6391 19.9609 22.583C20.0987 22.5268 20.2241 22.4441 20.33 22.3394C20.4359 22.2348 20.5201 22.1104 20.5778 21.9732C20.6356 21.836 20.6658 21.6888 20.6666 21.54V4.46C20.6658 4.31117 20.6356 4.16397 20.5778 4.0268C20.5201 3.88963 20.4359 3.76518 20.33 3.66056C20.2241 3.55594 20.0987 3.47319 19.9609 3.41705C19.823 3.3609 19.6755 3.33246 19.5266 3.33333Z" fill="#878784"/>
<path d="M17.3334 4.88666C17.3316 4.47523 17.1674 4.08115 16.8765 3.79022C16.5855 3.4993 16.1914 3.33508 15.78 3.33332H14.58C14.4332 2.75971 14.0996 2.2513 13.6318 1.88823C13.1641 1.52516 12.5888 1.32809 11.9967 1.32809C11.4046 1.32809 10.8293 1.52516 10.3616 1.88823C9.89382 2.2513 9.56022 2.75971 9.41335 3.33332H8.22002C7.80859 3.33508 7.41451 3.4993 7.12359 3.79022C6.83266 4.08115 6.66844 4.47523 6.66669 4.88666V7.33332H17.3334V4.88666ZM16 5.99999H8.00002V4.88666C8.00002 4.85777 8.00571 4.82916 8.01677 4.80247C8.02782 4.77577 8.04403 4.75152 8.06446 4.73109C8.08489 4.71066 8.10914 4.69446 8.13583 4.6834C8.16252 4.67235 8.19113 4.66666 8.22002 4.66666H10.6667V3.99999C10.6667 3.64637 10.8072 3.30723 11.0572 3.05718C11.3073 2.80713 11.6464 2.66666 12 2.66666C12.3536 2.66666 12.6928 2.80713 12.9428 3.05718C13.1929 3.30723 13.3334 3.64637 13.3334 3.99999V4.66666H15.78C15.8384 4.66666 15.8943 4.68984 15.9356 4.73109C15.9768 4.77235 16 4.82831 16 4.88666V5.99999Z" fill="#878784"/>
<path d="M7.33337 9.33333H16.6667V10.6667H7.33337V9.33333Z" fill="#878784"/>
<path d="M7.33337 12H16.6667V13.3333H7.33337V12Z" fill="#878784"/>
<path d="M7.33337 14.6667H16.6667V16H7.33337V14.6667Z" fill="#878784"/>
<path d="M7.33337 17.3333H16.6667V18.6667H7.33337V17.3333Z" fill="#878784"/>
</svg>
