<svg width="24" height="24" viewBox="0 0 24 24" fill="none" xmlns="http://www.w3.org/2000/svg">
<path d="M12.94 12L17.8 7.14001C17.9092 7.01247 17.9663 6.84842 17.9598 6.68064C17.9533 6.51285 17.8838 6.35369 17.765 6.23496C17.6463 6.11623 17.4871 6.04668 17.3194 6.0402C17.1516 6.03372 16.9875 6.09079 16.86 6.20001L12 11.06L7.13999 6.19334C7.01246 6.08412 6.84841 6.02705 6.68062 6.03353C6.51284 6.04001 6.35368 6.10957 6.23495 6.2283C6.11622 6.34703 6.04667 6.50619 6.04018 6.67397C6.0337 6.84175 6.09078 7.00581 6.19999 7.13334L11.06 12L6.19333 16.86C6.12354 16.9198 6.06686 16.9933 6.02684 17.076C5.98683 17.1587 5.96434 17.2488 5.96079 17.3406C5.95725 17.4325 5.97272 17.524 6.00623 17.6096C6.03975 17.6951 6.09059 17.7728 6.15556 17.8378C6.22053 17.9027 6.29823 17.9536 6.38378 17.9871C6.46933 18.0206 6.56088 18.0361 6.65269 18.0325C6.74451 18.029 6.8346 18.0065 6.91731 17.9665C7.00002 17.9265 7.07356 17.8698 7.13333 17.8L12 12.94L16.86 17.8C16.9875 17.9092 17.1516 17.9663 17.3194 17.9598C17.4871 17.9533 17.6463 17.8838 17.765 17.765C17.8838 17.6463 17.9533 17.4872 17.9598 17.3194C17.9663 17.1516 17.9092 16.9875 17.8 16.86L12.94 12Z" fill="#878784"/>
</svg>
