<svg width="24" height="24" viewBox="0 0 24 24" fill="none" xmlns="http://www.w3.org/2000/svg">
<path d="M9.75 15.75H19.6275L17.6925 17.6925L18.75 18.75L22.5 15L18.75 11.25L17.6925 12.3075L19.6275 14.25H9.75V15.75Z" fill="#878784"/>
<path d="M16.5 10.5V7.5C16.5006 7.40129 16.4817 7.30345 16.4443 7.21207C16.407 7.12069 16.352 7.03758 16.2825 6.9675L11.0325 1.7175C10.9624 1.64799 10.8793 1.59299 10.7879 1.55567C10.6966 1.51835 10.5987 1.49943 10.5 1.5H3C2.60218 1.5 2.22064 1.65803 1.93934 1.93934C1.65804 2.22064 1.5 2.60217 1.5 3V21C1.5 21.3978 1.65804 21.7794 1.93934 22.0607C2.22064 22.342 2.60218 22.5 3 22.5H15C15.3978 22.5 15.7794 22.342 16.0607 22.0607C16.342 21.7794 16.5 21.3978 16.5 21V19.5H15V21H3V3H9V7.5C9 7.89782 9.15804 8.27935 9.43934 8.56066C9.72064 8.84196 10.1022 9 10.5 9H15V10.5H16.5ZM10.5 7.5V3.3075L14.6925 7.5H10.5Z" fill="#878784"/>
</svg>
