<svg width="24" height="24" viewBox="0 0 24 24" fill="none" xmlns="http://www.w3.org/2000/svg">
<path d="M15.75 7.5H12.75V4.5H11.25V7.5H8.25V9H11.25V12H12.75V9H15.75V7.5Z" fill="#878784"/>
<path d="M21 7.5H19.5V3C19.4996 2.6023 19.3414 2.221 19.0602 1.93978C18.779 1.65856 18.3977 1.5004 18 1.5H6C5.6023 1.5004 5.221 1.65856 4.93978 1.93978C4.65856 2.221 4.5004 2.6023 4.5 3V7.5H3C2.6023 7.5004 2.221 7.65856 1.93978 7.93978C1.65856 8.221 1.5004 8.6023 1.5 9V22.5H22.5V9C22.4996 8.6023 22.3414 8.221 22.0602 7.93978C21.779 7.65856 21.3977 7.5004 21 7.5ZM10.5 21V16.5H13.5V21H10.5ZM15 21V15.75C15 15.5511 14.921 15.3603 14.7803 15.2197C14.6397 15.079 14.4489 15 14.25 15H9.75C9.55109 15 9.36032 15.079 9.21967 15.2197C9.07902 15.3603 9 15.5511 9 15.75V21H3V9H6V3H18V9H21V21H15Z" fill="#878784"/>
</svg>
