<svg width="24" height="24" viewBox="0 0 24 24" fill="none" xmlns="http://www.w3.org/2000/svg">
<path d="M4.66665 4.00001H15.3333V10.5333H16.6666V4.00001C16.6666 3.64638 16.5262 3.30724 16.2761 3.0572C16.0261 2.80715 15.6869 2.66667 15.3333 2.66667H4.66665C4.31302 2.66667 3.97389 2.80715 3.72384 3.0572C3.47379 3.30724 3.33331 3.64638 3.33331 4.00001V20C3.33331 20.3536 3.47379 20.6928 3.72384 20.9428C3.97389 21.1929 4.31302 21.3333 4.66665 21.3333H15.3333C15.6869 21.3333 16.0261 21.1929 16.2761 20.9428C16.5262 20.6928 16.6666 20.3536 16.6666 20H4.66665V4.00001Z" fill="#878784"/>
<path d="M18.7733 11.52C18.6458 11.4108 18.4817 11.3537 18.314 11.3602C18.1462 11.3667 17.987 11.4362 17.8683 11.555C17.7496 11.6737 17.68 11.8328 17.6735 12.0006C17.667 12.1684 17.7241 12.3325 17.8333 12.46L20.0867 14.6667H10.42C10.2432 14.6667 10.0736 14.7369 9.94859 14.8619C9.82356 14.987 9.75333 15.1565 9.75333 15.3333C9.75333 15.5101 9.82356 15.6797 9.94859 15.8047C10.0736 15.9298 10.2432 16 10.42 16H20.0867L17.8333 18.3067C17.7635 18.3664 17.7069 18.44 17.6668 18.5227C17.6268 18.6054 17.6043 18.6955 17.6008 18.7873C17.5972 18.8791 17.6127 18.9707 17.6462 19.0562C17.6798 19.1418 17.7306 19.2195 17.7956 19.2844C17.8605 19.3494 17.9382 19.4002 18.0238 19.4338C18.1093 19.4673 18.2009 19.4827 18.2927 19.4792C18.3845 19.4757 18.4746 19.4532 18.5573 19.4132C18.64 19.3731 18.7136 19.3165 18.7733 19.2467L22.6667 15.38L18.7733 11.52Z" fill="#878784"/>
</svg>
